<svg width="15" height="16" viewBox="0 0 15 16" fill="none" xmlns="http://www.w3.org/2000/svg">
<path d="M8.75 1.8125C8.75 1.19023 8.24726 0.6875 7.625 0.6875C7.00273 0.6875 6.5 1.19023 6.5 1.8125V6.875H1.4375C0.815234 6.875 0.3125 7.37773 0.3125 8C0.3125 8.62226 0.815234 9.125 1.4375 9.125H6.5V14.1875C6.5 14.8098 7.00273 15.3125 7.625 15.3125C8.24726 15.3125 8.75 14.8098 8.75 14.1875V9.125H13.8125C14.4348 9.125 14.9375 8.62226 14.9375 8C14.9375 7.37773 14.4348 6.875 13.8125 6.875H8.75V1.8125Z" fill="#F3265E"/>
</svg>
