<svg width="22" height="24" viewBox="0 0 22 24" fill="none" xmlns="http://www.w3.org/2000/svg">
<path d="M8.25 5.25V7.5H14.25V5.25C14.2188 4.40625 13.9219 3.70312 13.3594 3.14062C12.7969 2.57812 12.0938 2.28125 11.25 2.25C10.4062 2.28125 9.70312 2.57812 9.14062 3.14062C8.57812 3.70312 8.28125 4.40625 8.25 5.25ZM6 9.75H3V19.5C3.03125 20.125 3.25 20.6562 3.65625 21.0938C4.09375 21.5 4.625 21.7188 5.25 21.75H17.25C17.875 21.7188 18.4062 21.5 18.8438 21.0938C19.25 20.6562 19.4688 20.125 19.5 19.5V9.75H16.5V12.375C16.4375 13.0625 16.0625 13.4375 15.375 13.5C14.6875 13.4375 14.3125 13.0625 14.25 12.375V9.75H8.25V12.375C8.1875 13.0625 7.8125 13.4375 7.125 13.5C6.4375 13.4375 6.0625 13.0625 6 12.375V9.75ZM6 7.5V5.25C6.03125 3.75 6.54688 2.51562 7.54688 1.54688C8.51562 0.546875 9.75 0.03125 11.25 0C12.75 0.03125 13.9844 0.546875 14.9531 1.54688C15.9531 2.51562 16.4688 3.75 16.5 5.25V7.5H19.5C20.125 7.53125 20.6562 7.75 21.0938 8.15625C21.5 8.59375 21.7188 9.125 21.75 9.75V19.5C21.7188 20.7812 21.2812 21.8438 20.4375 22.6875C19.5938 23.5312 18.5312 23.9687 17.25 24H5.25C3.96875 23.9687 2.90625 23.5312 2.0625 22.6875C1.21875 21.8438 0.78125 20.7812 0.75 19.5V9.75C0.78125 9.125 1 8.59375 1.40625 8.15625C1.84375 7.75 2.375 7.53125 3 7.5H6Z" fill="#201A1A"/>
</svg>
