<svg width="20" height="15" viewBox="0 0 20 15" fill="none" xmlns="http://www.w3.org/2000/svg">
<path d="M10.3599 1.45152C10.4015 0.99319 10.6515 0.74319 11.1099 0.701523H12.3911C12.7661 0.701523 13.1099 0.80569 13.4224 1.01402C13.714 1.22236 13.9224 1.51402 14.0474 1.88902L14.2974 2.60777L15.8911 1.79527C16.0369 1.73277 16.1932 1.70152 16.3599 1.70152H16.6099C16.9224 1.72236 17.089 1.88902 17.1099 2.20152V4.20152C17.089 4.51402 16.9224 4.68069 16.6099 4.70152H16.3599C16.1932 4.70152 16.0369 4.67027 15.8911 4.60777L14.7974 4.04527L15.7349 6.70153C15.7974 6.70153 15.8599 6.70153 15.9224 6.70153C15.9849 6.70153 16.0474 6.70153 16.1099 6.70153C17.5057 6.74319 18.6724 7.22236 19.6099 8.13903C19.9015 8.49319 19.9015 8.84736 19.6099 9.20153C19.2765 9.49319 18.9224 9.49319 18.5474 9.20153C17.9015 8.55569 17.089 8.22236 16.1099 8.20153C15.2349 8.22236 14.4849 8.49319 13.8599 9.01403C13.2349 9.55569 12.839 10.2432 12.6724 11.0765C12.5682 11.4724 12.3182 11.6807 11.9224 11.7015H10.6099C10.589 11.7015 10.5578 11.7015 10.5161 11.7015H8.10986C8.08903 12.5557 7.79736 13.264 7.23486 13.8265C6.67236 14.389 5.96403 14.6807 5.10986 14.7015C4.2557 14.6807 3.54736 14.389 2.98486 13.8265C2.42236 13.264 2.1307 12.5557 2.10986 11.7015H1.10986C0.818197 11.7015 0.578613 11.6078 0.391113 11.4203C0.203613 11.2328 0.109863 10.9932 0.109863 10.7015V9.70153C0.130697 8.57653 0.516113 7.62861 1.26611 6.85778C2.03695 6.10778 2.98486 5.72236 4.10986 5.70153H7.10986C7.40153 5.70153 7.64111 5.79528 7.82861 5.98278C8.01611 6.17028 8.10986 6.40986 8.10986 6.70153V8.70153C8.10986 8.99319 8.20361 9.23278 8.39111 9.42028C8.57861 9.60778 8.8182 9.70153 9.10986 9.70153H11.5161C12.0786 8.45153 12.9953 7.56611 14.2661 7.04528L12.6411 2.35777C12.5994 2.25361 12.5161 2.20152 12.3911 2.20152H11.1099C10.6515 2.15986 10.4015 1.90986 10.3599 1.45152ZM4.10986 2.70152H7.10986C7.40153 2.70152 7.64111 2.79527 7.82861 2.98277C8.01611 3.17027 8.10986 3.40986 8.10986 3.70152C8.10986 3.99319 8.01611 4.23277 7.82861 4.42027C7.64111 4.60777 7.40153 4.70152 7.10986 4.70152H4.10986C3.8182 4.70152 3.57861 4.60777 3.39111 4.42027C3.20361 4.23277 3.10986 3.99319 3.10986 3.70152C3.10986 3.40986 3.20361 3.17027 3.39111 2.98277C3.57861 2.79527 3.8182 2.70152 4.10986 2.70152ZM5.10986 13.2015C5.52653 13.1807 5.8807 13.0349 6.17236 12.764C6.4432 12.4724 6.58903 12.1182 6.60986 11.7015H3.60986C3.6307 12.1182 3.77653 12.4724 4.04736 12.764C4.33903 13.0349 4.6932 13.1807 5.10986 13.2015ZM16.1099 13.2015C16.6724 13.1807 17.1099 12.9307 17.4224 12.4515C17.6724 11.9515 17.6724 11.4515 17.4224 10.9515C17.1099 10.4724 16.6724 10.2224 16.1099 10.2015C15.5474 10.2224 15.1099 10.4724 14.7974 10.9515C14.5474 11.4515 14.5474 11.9515 14.7974 12.4515C15.1099 12.9307 15.5474 13.1807 16.1099 13.2015ZM16.1099 8.70153C16.6515 8.70153 17.1515 8.83694 17.6099 9.10778C18.0682 9.37861 18.4328 9.74319 18.7036 10.2015C18.9744 10.6807 19.1099 11.1807 19.1099 11.7015C19.1099 12.2224 18.9744 12.7224 18.7036 13.2015C18.4328 13.6599 18.0682 14.0244 17.6099 14.2953C17.1515 14.5661 16.6515 14.7015 16.1099 14.7015C15.5682 14.7015 15.0682 14.5661 14.6099 14.2953C14.1515 14.0244 13.7869 13.6599 13.5161 13.2015C13.2453 12.7224 13.1099 12.2224 13.1099 11.7015C13.1099 11.1807 13.2453 10.6807 13.5161 10.2015C13.7869 9.74319 14.1515 9.37861 14.6099 9.10778C15.0682 8.83694 15.5682 8.70153 16.1099 8.70153Z" fill="#F3265E"/>
</svg>
