<svg width="19" height="24" viewBox="0 0 19 24" fill="none" xmlns="http://www.w3.org/2000/svg">
<path d="M0.75 3C0.78125 2.15625 1.07812 1.45312 1.64062 0.890625C2.20312 0.328125 2.90625 0.03125 3.75 0H15.75C16.5938 0.03125 17.2969 0.328125 17.8594 0.890625C18.4219 1.45312 18.7188 2.15625 18.75 3V21C18.7188 21.8438 18.4219 22.5469 17.8594 23.1094C17.2969 23.6719 16.5938 23.9688 15.75 24H3.75C2.90625 23.9688 2.20312 23.6719 1.64062 23.1094C1.07812 22.5469 0.78125 21.8438 0.75 21V3ZM3.75 6.75C3.78125 7.21875 4.03125 7.46875 4.5 7.5H15C15.4688 7.46875 15.7188 7.21875 15.75 6.75C15.7188 6.28125 15.4688 6.03125 15 6H4.5C4.03125 6.03125 3.78125 6.28125 3.75 6.75ZM4.5 10.5C4.03125 10.5312 3.78125 10.7812 3.75 11.25C3.78125 11.7188 4.03125 11.9688 4.5 12H15C15.4688 11.9688 15.7188 11.7188 15.75 11.25C15.7188 10.7812 15.4688 10.5312 15 10.5H4.5ZM4.5 15C4.03125 15.0312 3.78125 15.2812 3.75 15.75C3.78125 16.2188 4.03125 16.4688 4.5 16.5H10.5C10.9688 16.4688 11.2188 16.2188 11.25 15.75C11.2188 15.2812 10.9688 15.0312 10.5 15H4.5Z" fill="#F3265E"/>
</svg>
