<svg width="25" height="24" viewBox="0 0 25 24" fill="none" xmlns="http://www.w3.org/2000/svg">
<path d="M12.25 21.7509C14.0312 21.7509 15.6562 21.3134 17.125 20.4384C18.5938 19.5946 19.7812 18.4071 20.6875 16.8759C21.5625 15.3446 22 13.7196 22 12.0009C22 10.2821 21.5625 8.65714 20.6875 7.12589C19.7812 5.59464 18.5938 4.40714 17.125 3.56339C15.6562 2.68839 14.0312 2.25089 12.25 2.25089C10.4688 2.25089 8.84375 2.68839 7.375 3.56339C5.90625 4.40714 4.71875 5.59464 3.8125 7.12589C2.9375 8.65714 2.5 10.2821 2.5 12.0009C2.5 13.7196 2.9375 15.3446 3.8125 16.8759C4.71875 18.4071 5.90625 19.5946 7.375 20.4384C8.84375 21.3134 10.4688 21.7509 12.25 21.7509ZM12.25 0.00088501C14.4375 0.032135 16.4375 0.563385 18.25 1.59464C20.0625 2.65714 21.5312 4.12589 22.6562 6.00089C23.7188 7.90714 24.25 9.90714 24.25 12.0009C24.25 14.0946 23.7188 16.0946 22.6562 18.0009C21.5312 19.8759 20.0625 21.3446 18.25 22.4071C16.4375 23.4384 14.4375 23.9696 12.25 24.0009C10.0625 23.9696 8.0625 23.4384 6.25 22.4071C4.4375 21.3446 2.96875 19.8759 1.84375 18.0009C0.78125 16.0946 0.25 14.0946 0.25 12.0009C0.25 9.90714 0.78125 7.90714 1.84375 6.00089C2.96875 4.12589 4.4375 2.65714 6.25 1.59464C8.0625 0.563385 10.0625 0.032135 12.25 0.00088501ZM13.75 12.0009C13.75 12.4384 13.6094 12.7978 13.3281 13.079C13.0469 13.3603 12.6875 13.5009 12.25 13.5009C11.8125 13.5009 11.4531 13.3603 11.1719 13.079C10.8906 12.7978 10.75 12.4384 10.75 12.0009C10.75 11.5634 10.8906 11.204 11.1719 10.9228C11.4531 10.6415 11.8125 10.5009 12.25 10.5009C12.6875 10.5009 13.0469 10.6415 13.3281 10.9228C13.6094 11.204 13.75 11.5634 13.75 12.0009ZM16.75 10.5009C17.1875 10.5009 17.5469 10.6415 17.8281 10.9228C18.1094 11.204 18.25 11.5634 18.25 12.0009C18.25 12.4384 18.1094 12.7978 17.8281 13.079C17.5469 13.3603 17.1875 13.5009 16.75 13.5009C16.3125 13.5009 15.9531 13.3603 15.6719 13.079C15.3906 12.7978 15.25 12.4384 15.25 12.0009C15.25 11.5634 15.3906 11.204 15.6719 10.9228C15.9531 10.6415 16.3125 10.5009 16.75 10.5009ZM9.25 12.0009C9.25 12.4384 9.10938 12.7978 8.82812 13.079C8.54688 13.3603 8.1875 13.5009 7.75 13.5009C7.3125 13.5009 6.95312 13.3603 6.67188 13.079C6.39062 12.7978 6.25 12.4384 6.25 12.0009C6.25 11.5634 6.39062 11.204 6.67188 10.9228C6.95312 10.6415 7.3125 10.5009 7.75 10.5009C8.1875 10.5009 8.54688 10.6415 8.82812 10.9228C9.10938 11.204 9.25 11.5634 9.25 12.0009Z" fill="#201A1A"/>
</svg>
