<svg width="25" height="24" viewBox="0 0 25 24" fill="none" xmlns="http://www.w3.org/2000/svg">
<path d="M3.75 3.05176e-05C3.3125 3.05176e-05 2.95312 0.140656 2.67188 0.421906C2.39062 0.703156 2.25 1.06253 2.25 1.50003V4.50003C2.25 4.93753 2.39062 5.29691 2.67188 5.57816C2.95312 5.85941 3.3125 6.00003 3.75 6.00003H7.5V7.50003H4.875C4.09375 7.50003 3.4375 7.75003 2.90625 8.25003C2.34375 8.71878 2 9.32816 1.875 10.0782L0.796875 17.8125C0.765625 17.875 0.75 17.9375 0.75 18C0.75 18.0625 0.75 18.1407 0.75 18.2344V21C0.78125 21.8438 1.07812 22.5469 1.64062 23.1094C2.20312 23.6719 2.90625 23.9688 3.75 24H21.75C22.5938 23.9688 23.2969 23.6719 23.8594 23.1094C24.4219 22.5469 24.7188 21.8438 24.75 21V18.2344C24.75 18.0782 24.7344 17.9375 24.7031 17.8125L23.625 10.0782C23.5 9.32816 23.1562 8.71878 22.5938 8.25003C22.0625 7.75003 21.4062 7.50003 20.625 7.50003H10.5V6.00003H14.25C14.6875 6.00003 15.0469 5.85941 15.3281 5.57816C15.6094 5.29691 15.75 4.93753 15.75 4.50003V1.50003C15.75 1.06253 15.6094 0.703156 15.3281 0.421906C15.0469 0.140656 14.6875 3.05176e-05 14.25 3.05176e-05H3.75ZM5.25 2.25003H12.75C13.2188 2.28128 13.4688 2.53128 13.5 3.00003C13.4688 3.46878 13.2188 3.71878 12.75 3.75003H5.25C4.78125 3.71878 4.53125 3.46878 4.5 3.00003C4.53125 2.53128 4.78125 2.28128 5.25 2.25003ZM3 21V20.25H22.5V21C22.4688 21.4688 22.2188 21.7188 21.75 21.75H3.75C3.28125 21.7188 3.03125 21.4688 3 21ZM21.375 10.4063L22.5 18H3.04688L4.125 10.4063C4.1875 10 4.4375 9.78128 4.875 9.75003H20.6719C21.0781 9.78128 21.3125 10 21.375 10.4063ZM6 10.875C5.3125 10.9375 4.9375 11.3125 4.875 12C4.9375 12.6875 5.3125 13.0625 6 13.125C6.6875 13.0625 7.0625 12.6875 7.125 12C7.0625 11.3125 6.6875 10.9375 6 10.875ZM9.375 12C9.4375 12.6875 9.8125 13.0625 10.5 13.125C11.1875 13.0625 11.5625 12.6875 11.625 12C11.5625 11.3125 11.1875 10.9375 10.5 10.875C9.8125 10.9375 9.4375 11.3125 9.375 12ZM8.25 14.625C7.5625 14.6875 7.1875 15.0625 7.125 15.75C7.1875 16.4375 7.5625 16.8125 8.25 16.875C8.9375 16.8125 9.3125 16.4375 9.375 15.75C9.3125 15.0625 8.9375 14.6875 8.25 14.625ZM13.875 12C13.9375 12.6875 14.3125 13.0625 15 13.125C15.6875 13.0625 16.0625 12.6875 16.125 12C16.0625 11.3125 15.6875 10.9375 15 10.875C14.3125 10.9375 13.9375 11.3125 13.875 12ZM12.75 14.625C12.0625 14.6875 11.6875 15.0625 11.625 15.75C11.6875 16.4375 12.0625 16.8125 12.75 16.875C13.4375 16.8125 13.8125 16.4375 13.875 15.75C13.8125 15.0625 13.4375 14.6875 12.75 14.625ZM18.375 12C18.4375 12.6875 18.8125 13.0625 19.5 13.125C20.1875 13.0625 20.5625 12.6875 20.625 12C20.5625 11.3125 20.1875 10.9375 19.5 10.875C18.8125 10.9375 18.4375 11.3125 18.375 12ZM17.25 14.625C16.5625 14.6875 16.1875 15.0625 16.125 15.75C16.1875 16.4375 16.5625 16.8125 17.25 16.875C17.9375 16.8125 18.3125 16.4375 18.375 15.75C18.3125 15.0625 17.9375 14.6875 17.25 14.625Z" fill="#201A1A"/>
</svg>
